<svg width="89" height="104" viewBox="0 0 89 104" fill="none" xmlns="http://www.w3.org/2000/svg">
<path d="M44.449 83.0879C54.9891 83.0879 63.5335 74.5435 63.5335 64.0034C63.5335 53.4634 54.9891 44.9189 44.449 44.9189C33.909 44.9189 25.3646 53.4634 25.3646 64.0034C25.3646 74.5435 33.909 83.0879 44.449 83.0879Z" fill="#FF7044"/>
<path d="M67.7975 99.9998H21.1096C11.6572 99.9998 4 92.3426 4 82.8902V36.2024C4 26.7499 11.6572 19.0928 21.1096 19.0928H67.7975C77.2499 19.0928 84.907 26.7499 84.907 36.2024V82.8902C84.907 87.6119 82.995 91.8938 79.898 94.9908C76.8011 98.0877 72.5192 99.9998 67.7975 99.9998Z" stroke="#5E7699" stroke-width="8" stroke-miterlimit="10"/>
<path d="M44.449 38.1689C54.9891 38.1689 63.5335 29.6245 63.5335 19.0845C63.5335 8.54441 54.9891 0 44.449 0C33.909 0 25.3646 8.54441 25.3646 19.0845C25.3646 29.6245 33.909 38.1689 44.449 38.1689Z" fill="#FF7044"/>
</svg>
